<mxfile host="65bd71144e">
    <diagram id="7bqF8mQaV3YLxjVAS_oQ" name="Page-1">
        <mxGraphModel dx="474" dy="520" grid="1" gridSize="10" guides="1" tooltips="1" connect="1" arrows="1" fold="1" page="1" pageScale="1" pageWidth="850" pageHeight="1100" math="0" shadow="0">
            <root>
                <mxCell id="0"/>
                <mxCell id="1" parent="0"/>
                <mxCell id="rGiAy4pKjq_gEv82RidY-7" value="" style="edgeStyle=none;html=1;" parent="1" source="rGiAy4pKjq_gEv82RidY-1" target="rGiAy4pKjq_gEv82RidY-2" edge="1">
                    <mxGeometry relative="1" as="geometry"/>
                </mxCell>
                <mxCell id="rGiAy4pKjq_gEv82RidY-1" value="Begin" style="strokeWidth=2;html=1;shape=mxgraph.flowchart.terminator;whiteSpace=wrap;" parent="1" vertex="1">
                    <mxGeometry x="375" y="320" width="100" height="60" as="geometry"/>
                </mxCell>
                <mxCell id="rGiAy4pKjq_gEv82RidY-8" value="" style="edgeStyle=none;html=1;" parent="1" source="rGiAy4pKjq_gEv82RidY-2" edge="1">
                    <mxGeometry relative="1" as="geometry">
                        <mxPoint x="425" y="590" as="targetPoint"/>
                    </mxGeometry>
                </mxCell>
                <mxCell id="rGiAy4pKjq_gEv82RidY-2" value="Score" style="html=1;strokeWidth=2;shape=manualInput;whiteSpace=wrap;rounded=1;size=26;arcSize=11;" parent="1" vertex="1">
                    <mxGeometry x="375" y="450" width="100" height="60" as="geometry"/>
                </mxCell>
                <mxCell id="rGiAy4pKjq_gEv82RidY-29" style="edgeStyle=none;html=1;entryX=0;entryY=0.5;entryDx=0;entryDy=0;entryPerimeter=0;" parent="1" source="rGiAy4pKjq_gEv82RidY-4" target="rGiAy4pKjq_gEv82RidY-24" edge="1">
                    <mxGeometry relative="1" as="geometry">
                        <Array as="points">
                            <mxPoint x="240" y="875"/>
                        </Array>
                    </mxGeometry>
                </mxCell>
                <mxCell id="rGiAy4pKjq_gEv82RidY-4" value="Pass" style="strokeWidth=2;html=1;shape=mxgraph.flowchart.display;whiteSpace=wrap;" parent="1" vertex="1">
                    <mxGeometry x="190" y="740" width="100" height="60" as="geometry"/>
                </mxCell>
                <mxCell id="rGiAy4pKjq_gEv82RidY-27" style="edgeStyle=none;html=1;entryX=1;entryY=0.5;entryDx=0;entryDy=0;entryPerimeter=0;" parent="1" source="rGiAy4pKjq_gEv82RidY-5" target="rGiAy4pKjq_gEv82RidY-24" edge="1">
                    <mxGeometry relative="1" as="geometry">
                        <Array as="points">
                            <mxPoint x="610" y="875"/>
                        </Array>
                    </mxGeometry>
                </mxCell>
                <mxCell id="rGiAy4pKjq_gEv82RidY-5" value="Fall" style="strokeWidth=2;html=1;shape=mxgraph.flowchart.display;whiteSpace=wrap;" parent="1" vertex="1">
                    <mxGeometry x="560" y="750" width="100" height="60" as="geometry"/>
                </mxCell>
                <mxCell id="rGiAy4pKjq_gEv82RidY-6" value="End" style="strokeWidth=2;html=1;shape=mxgraph.flowchart.terminator;whiteSpace=wrap;" parent="1" vertex="1">
                    <mxGeometry x="375" y="940" width="100" height="60" as="geometry"/>
                </mxCell>
                <mxCell id="rGiAy4pKjq_gEv82RidY-11" style="edgeStyle=none;html=1;entryX=0.5;entryY=0;entryDx=0;entryDy=0;entryPerimeter=0;" parent="1" source="rGiAy4pKjq_gEv82RidY-9" target="rGiAy4pKjq_gEv82RidY-4" edge="1">
                    <mxGeometry relative="1" as="geometry">
                        <Array as="points">
                            <mxPoint x="240" y="650"/>
                        </Array>
                    </mxGeometry>
                </mxCell>
                <mxCell id="rGiAy4pKjq_gEv82RidY-23" style="edgeStyle=none;html=1;entryX=0.5;entryY=0;entryDx=0;entryDy=0;entryPerimeter=0;" parent="1" source="rGiAy4pKjq_gEv82RidY-9" target="rGiAy4pKjq_gEv82RidY-5" edge="1">
                    <mxGeometry relative="1" as="geometry">
                        <Array as="points">
                            <mxPoint x="610" y="650"/>
                        </Array>
                    </mxGeometry>
                </mxCell>
                <mxCell id="rGiAy4pKjq_gEv82RidY-9" value="Score &amp;gt;=50" style="strokeWidth=2;html=1;shape=mxgraph.flowchart.decision;whiteSpace=wrap;" parent="1" vertex="1">
                    <mxGeometry x="357" y="600" width="137" height="100" as="geometry"/>
                </mxCell>
                <mxCell id="rGiAy4pKjq_gEv82RidY-26" value="" style="edgeStyle=none;html=1;" parent="1" source="rGiAy4pKjq_gEv82RidY-24" target="rGiAy4pKjq_gEv82RidY-6" edge="1">
                    <mxGeometry relative="1" as="geometry"/>
                </mxCell>
                <mxCell id="rGiAy4pKjq_gEv82RidY-24" value="" style="strokeWidth=2;html=1;shape=mxgraph.flowchart.start_2;whiteSpace=wrap;" parent="1" vertex="1">
                    <mxGeometry x="419.5" y="870" width="12" height="10" as="geometry"/>
                </mxCell>
            </root>
        </mxGraphModel>
    </diagram>
    <diagram id="5sxNUDwMQBYY71VOS56O" name="Page-2">
        <mxGraphModel dx="426" dy="808" grid="1" gridSize="10" guides="1" tooltips="1" connect="1" arrows="1" fold="1" page="1" pageScale="1" pageWidth="850" pageHeight="1100" math="0" shadow="0">
            <root>
                <mxCell id="0"/>
                <mxCell id="1" parent="0"/>
            </root>
        </mxGraphModel>
    </diagram>
</mxfile>